Coordinates
version=1
nRows=19
nColumns=24
inDegrees=yes

Units are S.I. units (second, meters, Newtons, ...)
Angles are in degrees.

endheader
time	pelvis_tilt	pelvis_list	pelvis_rotation	pelvis_tx	pelvis_ty	pelvis_tz	hip_flexion_r	hip_adduction_r	hip_rotation_r	knee_angle_r	ankle_angle_r	subtalar_angle_r	mtp_angle_r	hip_flexion_l	hip_adduction_l	hip_rotation_l	knee_angle_l	ankle_angle_l	subtalar_angle_l	mtp_angle_l	lumbar_extension	lumbar_bending	lumbar_rotation
      0.72100000	      3.27180870	      0.68436046	      2.52016989	     -0.47311992	      1.02341864	      0.28607478	      6.34403029	      3.76887169	     -0.56601969	    -15.09842448	      4.77898431	    -14.97083089	      7.56765971	     14.07465301	     -0.93469581	     -3.35569540	    -65.64341216	      2.53340812	    -16.16359741	      3.83135729	    -11.35743498	     -0.82913946	      2.32849847
      0.72516667	      3.24666539	      0.83750651	      2.36584513	     -0.46790977	      1.02423839	      0.28625444	      5.91058993	      3.62318171	     -0.43165371	    -14.83819734	      4.93113566	    -14.84586904	      7.57544398	     14.53271369	     -0.71511640	     -3.38260788	    -65.04962352	      2.81062315	    -16.09796859	      3.66084522	    -11.36288973	     -0.99535496	      2.59518087
      0.72933333	      3.21829196	      0.98425764	      2.22727651	     -0.46269080	      1.02501506	      0.28638171	      5.47565096	      3.47553603	     -0.34156590	    -14.56193506	      5.00137807	    -14.74612622	      7.58060148	     14.98387126	     -0.49889454	     -3.39399496	    -64.40536847	      3.11585533	    -16.03059122	      3.58765657	    -11.35480165	     -1.16215620	      2.70414945
      0.73350000	      3.21745674	      1.12269873	      2.07473176	     -0.45748139	      1.02578273	      0.28653220	      5.00917978	      3.33783381	     -0.23675051	    -14.28130580	      5.15870622	    -14.59727106	      7.59412555	     15.39098771	     -0.31000872	     -3.42993320	    -63.70801714	      3.39272080	    -15.86143802	      3.44486943	    -11.38683298	     -1.32116760	      2.96228778
      0.73766667	      3.18489994	      1.25912128	      1.92413334	     -0.45226956	      1.02646905	      0.28664507	      4.58108655	      3.19504452	     -0.14284181	    -14.00520828	      5.27220366	    -14.46220034	      7.60884921	     15.81847732	     -0.11903597	     -3.45865412	    -62.95646672	      3.66652964	    -15.66355978	      3.31677980	    -11.37696209	     -1.47389864	      3.15761854
      0.74183333	      3.15316113	      1.39627412	      1.77020965	     -0.44705382	      1.02711796	      0.28674567	      4.15157110	      3.04799520	     -0.05243151	    -13.72667545	      5.38673418	    -14.32425445	      7.62475284	     16.22766642	      0.06822879	     -3.49304672	    -62.14899772	      3.92154382	    -15.43885975	      3.21289383	    -11.36622558	     -1.62727024	      3.34203614
      0.74600000	      3.12346878	      1.51556523	      1.61713567	     -0.44184202	      1.02771007	      0.28683830	      3.71889084	      2.91823883	      0.03332454	    -13.44291933	      5.50019715	    -14.18227935	      7.64262934	     16.62412298	      0.22846788	     -3.52904319	    -61.30203264	      4.17155881	    -15.16892289	      3.11918628	    -11.35827542	     -1.75942423	      3.53992916
      0.75016667	      3.08644122	      1.62936987	      1.46276029	     -0.43663701	      1.02823202	      0.28691575	      3.29662521	      2.79105468	      0.11677445	    -13.16195602	      5.61799000	    -14.03494953	      7.66232929	     17.01525277	      0.37784679	     -3.56979464	    -60.41068082	      4.40655054	    -14.87368453	      3.03431004	    -11.34188141	     -1.88261349	      3.73989189
      0.75433333	      3.03885439	      1.74702736	      1.30724516	     -0.43142687	      1.02871842	      0.28697244	      2.88667272	      2.65596438	      0.19532064	    -12.88019526	      5.69589857	    -13.91036826	      7.67484633	     17.39684695	      0.53205607	     -3.60918652	    -59.45874374	      4.59839060	    -14.58422786	      2.99341612	    -11.30661454	     -2.01241315	      3.87866513
      0.75850000	      3.02714672	      1.82992555	      1.15270657	     -0.42621723	      1.02917637	      0.28704033	      2.42592059	      2.56026513	      0.28214474	    -12.57347324	      5.84344685	    -13.75731932	      7.69676598	     17.73217399	      0.62885583	     -3.66600730	    -58.48635884	      4.81486612	    -14.22057665	      2.92996847	    -11.32310079	     -2.10021298	      4.13506836
      0.76266667	      2.98526868	      1.93532659	      0.99563276	     -0.42101480	      1.02956743	      0.28707613	      2.01011972	      2.43361829	      0.35782388	    -12.28926202	      5.92471021	    -13.63324652	      7.71038765	     18.07516808	      0.75862487	     -3.71646429	    -57.44479137	      4.96310994	    -13.90489317	      2.89768840	    -11.29431521	     -2.21510187	      4.28402353
      0.76683333	      2.98462700	      2.00199786	      0.84251438	     -0.41581112	      1.02993764	      0.28712224	      1.53506574	      2.35164117	      0.44493667	    -11.97580991	      6.06991791	    -13.48849379	      7.73385089	     18.36554952	      0.82953396	     -3.77654336	    -56.38748010	      5.13715445	    -13.53836904	      2.84820347	    -11.32321728	     -2.28207559	      4.54468474
      0.77100000	      2.92404819	      2.08180551	      0.69134599	     -0.41060467	      1.03018394	      0.28714113	      1.13841166	      2.25030893	      0.51853681	    -11.68774524	      6.15176108	    -13.37765288	      7.74691450	     18.70049206	      0.92252813	     -3.82861754	    -55.27340541	      5.23784491	    -13.22180843	      2.82622733	    -11.27105868	     -2.36908009	      4.68560937
      0.77516667	      2.88144466	      2.14256187	      0.53954423	     -0.40540189	      1.03039760	      0.28716804	      0.71617520	      2.17023169	      0.60374954	    -11.38607674	      6.26531084	    -13.26139415	      7.76241838	     19.00191683	      0.98074666	     -3.89622206	    -54.13016134	      5.34110762	    -12.86903094	      2.80443130	    -11.24660662	     -2.43211589	      4.88952940
      0.77933333	      2.85998374	      2.19082518	      0.39572232	     -0.40020850	      1.03059263	      0.28717150	      0.26669626	      2.10257844	      0.68433975	    -11.07422461	      6.37255601	    -13.15593684	      7.77709995	     19.26405205	      1.02713613	     -3.95530839	    -52.94713318	      5.41606376	    -12.54039475	      2.78669302	    -11.24282317	     -2.47953107	      5.08910095
      0.78350000	      2.84618197	      2.23431013	      0.25082584	     -0.39500202	      1.03075437	      0.28717889	     -0.19910006	      2.03924259	      0.77956172	    -10.74749966	      6.50834711	    -13.05822262	      7.79813946	     19.49789320	      1.06140604	     -4.02435386	    -51.72658867	      5.47632502	    -12.23419621	      2.76418079	    -11.25982953	     -2.51652063	      5.35314397
      0.78766667	      2.77185209	      2.27244801	      0.12160909	     -0.38980642	      1.03076206	      0.28715373	     -0.58246254	      1.97937641	      0.84726903	    -10.45386134	      6.59505488	    -12.97655251	      7.80998830	     19.78549443	      1.09568545	     -4.07566234	    -50.47228886	      5.47945562	    -11.94904530	      2.75496381	    -11.19295998	     -2.55317138	      5.48911999
      0.79183333	      2.73950939	      2.30177534	     -0.00751605	     -0.38461388	      1.03079725	      0.28713021	     -1.01989232	      1.92902349	      0.92448617	    -10.14178072	      6.69863238	    -12.89891217	      7.82169162	     20.00629029	      1.11341544	     -4.13921878	    -49.17674741	      5.47033184	    -11.66200452	      2.74875332	    -11.17928997	     -2.58193162	      5.66351929
      0.79600000	      2.70079074	      2.33305205	     -0.13321563	     -0.37941622	      1.03077083	      0.28710387	     -1.44935676	      1.87590549	      1.00325343	     -9.83267998	      6.81216989	    -12.82814557	      7.83321446	     20.21332732	      1.13214368	     -4.20385666	    -47.84184464	      5.43646911	    -11.40454084	      2.74499626	    -11.16135316	     -2.60879103	      5.85119148
